HIERARCHY
ROOT Hips
{
	OFFSET 0.00 0.00 0.00
	CHANNELS 6 Xposition Yposition Zposition Xrotation Yrotation Zrotation
	JOINT Spine
	{
		OFFSET 0.00000 1.84593 2.76889
		CHANNELS 3 Xrotation Yrotation Zrotation
		JOINT Spine1
		{
			OFFSET 0.00000 0.64108 3.63577
			CHANNELS 3 Xrotation Yrotation Zrotation
			JOINT Spine2
			{
				OFFSET 0.00000 0.32177 3.67781
				CHANNELS 3 Xrotation Yrotation Zrotation
				JOINT Spine3
				{
					OFFSET 0.00000 0.00000 3.69186
					CHANNELS 3 Xrotation Yrotation Zrotation
					JOINT Neck
					{
						OFFSET 0.00000 -1.38445 9.69113
						CHANNELS 3 Xrotation Yrotation Zrotation
						JOINT Head
						{
							OFFSET 0.00000 -0.88149 4.99918
							CHANNELS 3 Xrotation Yrotation Zrotation
							End Site
							{
								OFFSET 0.00000 0.00000 5.97620
							}
						}
					}
					JOINT RightShoulder
					{
						OFFSET -1.20115 -2.00191 6.48620
						CHANNELS 3 Xrotation Yrotation Zrotation
						JOINT RightArm
						{
							OFFSET -5.96571 -0.00000 0.00000
							CHANNELS 3 Xrotation Yrotation Zrotation
							JOINT RightForeArm
							{
								OFFSET -11.55549 -0.00000 0.00000
								CHANNELS 3 Xrotation Yrotation Zrotation
								JOINT RightHand
								{
									OFFSET -10.15554 -0.00000 0.00000
									CHANNELS 3 Xrotation Yrotation Zrotation
									JOINT RightHandEnd
									{
										OFFSET -2.81846 -0.00000 0.00000
										CHANNELS 3 Xrotation Yrotation Zrotation
										End Site
										{
											OFFSET -2.81846 -0.00000 0.00000
										}
									}
									JOINT RightHandThumb1
									{
										OFFSET -1.12738 -1.87897 -0.75159
										CHANNELS 3 Xrotation Yrotation Zrotation
										End Site
										{
											OFFSET -2.72242 -0.72947 0.00000
										}
									}
								}
							}
						}
					}
					JOINT LeftShoulder
					{
						OFFSET 1.20115 -2.00191 6.48620
						CHANNELS 3 Xrotation Yrotation Zrotation
						JOINT LeftArm
						{
							OFFSET 5.96571 0.00000 0.00000
							CHANNELS 3 Xrotation Yrotation Zrotation
							JOINT LeftForeArm
							{
								OFFSET 11.55549 0.00000 0.00000
								CHANNELS 3 Xrotation Yrotation Zrotation
								JOINT LeftHand
								{
									OFFSET 10.15554 0.00000 0.00000
									CHANNELS 3 Xrotation Yrotation Zrotation
									JOINT LeftHandEnd
									{
										OFFSET 2.81846 0.00000 0.00000
										CHANNELS 3 Xrotation Yrotation Zrotation
										End Site
										{
											OFFSET 2.81846 0.00000 0.00000
										}
									}
									JOINT LeftHandThumb1
									{
										OFFSET 1.12738 -1.87897 -0.75159
										CHANNELS 3 Xrotation Yrotation Zrotation
										End Site
										{
											OFFSET 2.72242 -0.72947 0.00000
										}
									}
								}
							}
						}
					}
				}
			}
		}
	}
	JOINT RightUpLeg
	{
		OFFSET -3.56341 0.00000 -1.04100
		CHANNELS 3 Xrotation Yrotation Zrotation
		JOINT RightLeg
		{
			OFFSET 0.00000 0.00000 -16.70611
			CHANNELS 3 Xrotation Yrotation Zrotation
			JOINT RightFoot
			{
				OFFSET 0.00000 0.00000 -16.32118
				CHANNELS 3 Xrotation Yrotation Zrotation
				JOINT RightToeBase
				{
					OFFSET 0.00000 -5.82844 -2.12138
					CHANNELS 3 Xrotation Yrotation Zrotation
					End Site
					{
						OFFSET 0.00000 -2.88276 0.00000
					}
				}
			}
		}
	}
	JOINT LeftUpLeg
	{
		OFFSET 3.56341 0.00000 -1.04100
		CHANNELS 3 Xrotation Yrotation Zrotation
		JOINT LeftLeg
		{
			OFFSET 0.00000 0.00000 -16.70611
			CHANNELS 3 Xrotation Yrotation Zrotation
			JOINT LeftFoot
			{
				OFFSET 0.00000 0.00000 -16.32118
				CHANNELS 3 Xrotation Yrotation Zrotation
				JOINT LeftToeBase
				{
					OFFSET 0.00000 -5.82844 -2.12138
					CHANNELS 3 Xrotation Yrotation Zrotation
					End Site
					{
						OFFSET 0.00000 -2.88276 0.00000
					}
				}
			}
		}
	}
}
MOTION
Frames: 18
Frame Time: 0.008342
 -2.5874 -24.6471 36.3746 -0.3976 1.0060 92.6875 -1.4315 -0.8662 0.1183 -0.9894 -0.3716 -0.0215 2.7403 0.7641 0.1413 1.0643 0.1725 -0.3537 4.9840 3.1107 1.2785 -2.4807 1.9619 -0.1014 0.2297 7.8251 -1.0387 -4.8705 -33.2886 -2.7969 -0.0000 -0.0000 10.4727 -17.3978 18.4584 -1.2848 -0.0000 0.0000 -0.0000 0.0000 0.0000 -0.0000 2.1712 -9.7022 4.1338 15.3962 22.2642 -17.8522 0.0000 -0.0000 -3.1380 -18.1705 -19.1611 3.0717 -0.0000 0.0000 0.0000 -0.0000 0.0000 0.0000 1.0589 -0.6254 -18.1726 5.1721 -0.0000 -0.0000 -5.8830 -4.6640 -4.5447 -1.9683 0.0000 -0.0000 1.5757 0.1658 18.0062 3.9011 0.0000 -0.0000 -8.9850 -1.2012 6.4535 3.3035 -0.0000 -0.0000
 -2.5904 -24.6461 36.3748 -0.4015 1.0048 92.6844 -1.4255 -0.8684 0.1184 -0.9879 -0.3726 -0.0213 2.7422 0.7607 0.1454 1.0643 0.1713 -0.3502 4.9827 3.1155 1.2774 -2.4838 1.9675 -0.1088 0.2318 7.8303 -1.0422 -4.8783 -33.2988 -2.8003 -0.0000 0.0000 10.4756 -17.4017 18.4689 -1.2741 -0.0000 -0.0000 -0.0000 -0.0000 0.0000 -0.0000 2.1691 -9.7035 4.1263 15.3943 22.2788 -17.8459 -0.0000 -0.0000 -3.1415 -18.1557 -19.1464 3.0974 -0.0000 0.0000 0.0000 -0.0000 0.0000 -0.0000 1.0533 -0.6272 -18.1692 5.1745 0.0000 -0.0000 -5.8773 -4.6641 -4.5447 -1.9746 0.0000 -0.0000 1.5655 0.1604 18.0387 3.9160 -0.0000 0.0000 -8.9915 -1.2012 6.4242 3.3076 0.0000 -0.0000
 -2.5948 -24.6447 36.3749 -0.4060 1.0112 92.6811 -1.4244 -0.8709 0.1186 -0.9869 -0.3740 -0.0212 2.7450 0.7569 0.1504 1.0646 0.1704 -0.3475 4.9809 3.1217 1.2760 -2.4883 1.9745 -0.1175 0.2332 7.8344 -1.0450 -4.8894 -33.3103 -2.8060 -0.0000 0.0000 10.4804 -17.4034 18.4772 -1.2643 -0.0000 -0.0000 0.0000 0.0000 -0.0000 0.0000 2.1690 -9.7040 4.1212 15.3914 22.2950 -17.8413 0.0000 -0.0000 -3.1456 -18.1422 -19.1309 3.1267 0.0000 0.0000 -0.0000 -0.0000 -0.0000 0.0000 1.0358 -0.6281 -18.1660 5.1804 -0.0000 -0.0000 -5.8710 -4.6637 -4.5445 -1.9817 0.0000 -0.0000 1.5419 0.1541 18.0787 3.9378 -0.0000 -0.0000 -8.9998 -1.2020 6.3872 3.3132 0.0000 -0.0000
 -2.6000 -24.6429 36.3751 -0.4117 1.0178 92.6784 -1.4218 -0.8744 0.1187 -0.9854 -0.3753 -0.0213 2.7479 0.7523 0.1554 1.0648 0.1695 -0.3445 4.9795 3.1301 1.2739 -2.4947 1.9828 -0.1284 0.2349 7.8392 -1.0477 -4.9024 -33.3246 -2.8134 -0.0000 0.0000 10.4863 -17.4049 18.4814 -1.2561 -0.0000 -0.0000 0.0000 -0.0000 0.0000 -0.0000 2.1687 -9.7061 4.1154 15.3904 22.3156 -17.8359 0.0000 -0.0000 -3.1520 -18.1289 -19.1163 3.1588 0.0000 -0.0000 0.0000 -0.0000 -0.0000 0.0000 1.0169 -0.6297 -18.1623 5.1856 -0.0000 0.0000 -5.8628 -4.6629 -4.5456 -1.9883 0.0000 -0.0000 1.5144 0.1461 18.1261 3.9643 0.0000 0.0000 -9.0098 -1.2034 6.3414 3.3186 0.0000 -0.0000
 -2.6061 -24.6409 36.3754 -0.4178 1.0250 92.6764 -1.4177 -0.8787 0.1186 -0.9834 -0.3765 -0.0213 2.7503 0.7475 0.1598 1.0650 0.1687 -0.3417 4.9787 3.1402 1.2712 -2.5031 1.9928 -0.1403 0.2370 7.8448 -1.0500 -4.9175 -33.3419 -2.8221 0.0000 0.0000 10.4930 -17.4053 18.4803 -1.2499 -0.0000 0.0000 -0.0000 0.0000 0.0000 -0.0000 2.1688 -9.7098 4.1099 15.3909 22.3403 -17.8301 0.0000 -0.0000 -3.1602 -18.1164 -19.1033 3.1916 0.0000 -0.0000 -0.0000 -0.0000 -0.0000 0.0000 0.9961 -0.6311 -18.1596 5.1908 0.0000 0.0000 -5.8535 -4.6623 -4.5470 -1.9941 -0.0000 0.0000 1.4831 0.1375 18.1801 3.9947 -0.0000 -0.0000 -9.0207 -1.2052 6.2875 3.3242 -0.0000 -0.0000
 -2.6130 -24.6386 36.3756 -0.4241 1.0344 92.6757 -1.4139 -0.8832 0.1183 -0.9818 -0.3776 -0.0215 2.7531 0.7426 0.1632 1.0651 0.1681 -0.3392 4.9782 3.1524 1.2677 -2.5131 2.0043 -0.1535 0.2391 7.8507 -1.0517 -4.9339 -33.3615 -2.8318 -0.0000 0.0000 10.4999 -17.4042 18.4732 -1.2471 -0.0000 -0.0000 -0.0000 -0.0000 -0.0000 -0.0000 2.1694 -9.7147 4.1054 15.3928 22.3676 -17.8246 -0.0000 0.0000 -3.1695 -18.1065 -19.0925 3.2230 -0.0000 0.0000 0.0000 0.0000 0.0000 -0.0000 0.9715 -0.6319 -18.1587 5.1962 0.0000 0.0000 -5.8435 -4.6618 -4.5481 -1.9990 -0.0000 -0.0000 1.4464 0.1285 18.2378 4.0287 0.0000 -0.0000 -9.0322 -1.2077 6.2280 3.3293 -0.0000 -0.0000
 -2.6205 -24.6360 36.3759 -0.4302 1.0439 92.6760 -1.4088 -0.8885 0.1182 -0.9788 -0.3781 -0.0215 2.7543 0.7381 0.1651 1.0655 0.1677 -0.3373 4.9784 3.1657 1.2635 -2.5245 2.0176 -0.1672 0.2411 7.8567 -1.0520 -4.9513 -33.3832 -2.8429 -0.0000 0.0000 10.5068 -17.4020 18.4588 -1.2480 -0.0000 -0.0000 0.0000 0.0000 0.0000 -0.0000 2.1691 -9.7216 4.1015 15.3972 22.3982 -17.8184 -0.0000 -0.0000 -3.1798 -18.0991 -19.0856 3.2509 0.0000 -0.0000 -0.0000 0.0000 -0.0000 -0.0000 0.9462 -0.6321 -18.1599 5.2014 0.0000 0.0000 -5.8328 -4.6618 -4.5487 -2.0025 -0.0000 0.0000 1.4075 0.1194 18.3003 4.0653 0.0000 -0.0000 -9.0440 -1.2103 6.1618 3.3335 0.0000 -0.0000
 -2.6284 -24.6333 36.3761 -0.4365 1.0556 92.6781 -1.4046 -0.8943 0.1178 -0.9757 -0.3780 -0.0213 2.7548 0.7335 0.1649 1.0659 0.1675 -0.3361 4.9787 3.1804 1.2590 -2.5368 2.0324 -0.1814 0.2430 7.8626 -1.0515 -4.9680 -33.4061 -2.8535 -0.0000 0.0000 10.5127 -17.3983 18.4391 -1.2531 -0.0000 0.0000 -0.0000 0.0000 -0.0000 0.0000 2.1695 -9.7285 4.0998 15.4030 22.4285 -17.8138 0.0000 0.0000 -3.1889 -18.0930 -19.0804 3.2749 0.0000 -0.0000 -0.0000 -0.0000 0.0000 -0.0000 0.9182 -0.6320 -18.1632 5.2064 0.0000 0.0000 -5.8218 -4.6623 -4.5493 -2.0040 -0.0000 0.0000 1.3646 0.1102 18.3637 4.1038 0.0000 0.0000 -9.0558 -1.2134 6.0925 3.3365 -0.0000 0.0000
 -2.6364 -24.6304 36.3764 -0.4415 1.0681 92.6815 -1.4006 -0.8995 0.1174 -0.9726 -0.3779 -0.0215 2.7558 0.7299 0.1631 1.0659 0.1675 -0.3355 4.9790 3.1958 1.2540 -2.5494 2.0490 -0.1955 0.2456 7.8693 -1.0500 -4.9853 -33.4312 -2.8640 -0.0000 0.0000 10.5169 -17.3927 18.4134 -1.2612 -0.0000 -0.0000 -0.0000 -0.0000 0.0000 -0.0000 2.1712 -9.7368 4.1001 15.4068 22.4605 -17.8097 -0.0000 0.0000 -3.1966 -18.0878 -19.0765 3.2929 -0.0000 0.0000 0.0000 -0.0000 0.0000 0.0000 0.8888 -0.6300 -18.1711 5.2122 0.0000 0.0000 -5.8113 -4.6638 -4.5471 -2.0044 0.0000 0.0000 1.3203 0.1024 18.4273 4.1423 0.0000 -0.0000 -9.0665 -1.2161 6.0213 3.3381 -0.0000 -0.0000
 -2.6446 -24.6274 36.3766 -0.4458 1.0821 92.6862 -1.3965 -0.9043 0.1171 -0.9705 -0.3778 -0.0215 2.7563 0.7268 0.1596 1.0661 0.1679 -0.3358 4.9788 3.2117 1.2490 -2.5612 2.0674 -0.2099 0.2478 7.8756 -1.0475 -4.9993 -33.4562 -2.8730 0.0000 0.0000 10.5192 -17.3863 18.3836 -1.2730 -0.0000 0.0000 -0.0000 0.0000 -0.0000 0.0000 2.1717 -9.7450 4.1014 15.4117 22.4916 -17.8055 0.0000 0.0000 -3.2020 -18.0835 -19.0743 3.3048 0.0000 0.0000 -0.0000 -0.0000 0.0000 -0.0000 0.8576 -0.6265 -18.1844 5.2191 -0.0000 0.0000 -5.8013 -4.6665 -4.5409 -2.0038 -0.0000 -0.0000 1.2746 0.0958 18.4896 4.1803 0.0000 0.0000 -9.0761 -1.2185 5.9501 3.3384 0.0000 -0.0000
 -2.6526 -24.6243 36.3768 -0.4492 1.0953 92.6924 -1.3908 -0.9086 0.1164 -0.9693 -0.3776 -0.0214 2.7567 0.7239 0.1546 1.0662 0.1686 -0.3367 4.9784 3.2280 1.2435 -2.5723 2.0875 -0.2242 0.2502 7.8819 -1.0440 -5.0111 -33.4813 -2.8815 -0.0000 0.0000 10.5199 -17.3800 18.3509 -1.2869 -0.0000 -0.0000 0.0000 0.0000 -0.0000 0.0000 2.1709 -9.7532 4.1035 15.4174 22.5219 -17.8019 -0.0000 -0.0000 -3.2042 -18.0785 -19.0722 3.3113 0.0000 -0.0000 -0.0000 -0.0000 -0.0000 0.0000 0.8274 -0.6219 -18.2039 5.2265 -0.0000 -0.0000 -5.7918 -4.6705 -4.5299 -2.0030 -0.0000 0.0000 1.2306 0.0901 18.5498 4.2166 -0.0000 0.0000 -9.0846 -1.2201 5.8797 3.3373 0.0000 -0.0000
 -2.6607 -24.6212 36.3769 -0.4519 1.1122 92.6992 -1.3891 -0.9126 0.1162 -0.9675 -0.3773 -0.0216 2.7571 0.7218 0.1485 1.0662 0.1693 -0.3382 4.9765 3.2443 1.2383 -2.5812 2.1094 -0.2389 0.2523 7.8880 -1.0403 -5.0182 -33.5059 -2.8869 -0.0000 0.0000 10.5177 -17.3734 18.3172 -1.3018 -0.0000 0.0000 0.0000 0.0000 -0.0000 -0.0000 2.1721 -9.7604 4.1083 15.4191 22.5497 -17.8010 -0.0000 -0.0000 -3.2014 -18.0724 -19.0684 3.3126 0.0000 -0.0000 -0.0000 -0.0000 -0.0000 -0.0000 0.7924 -0.6157 -18.2293 5.2368 -0.0000 0.0000 -5.7832 -4.6754 -4.5134 -2.0022 -0.0000 0.0000 1.1834 0.0856 18.6083 4.2517 -0.0000 -0.0000 -9.0919 -1.2212 5.8109 3.3359 -0.0000 0.0000
 -2.6684 -24.6180 36.3771 -0.4540 1.1287 92.7064 -1.3866 -0.9164 0.1160 -0.9664 -0.3771 -0.0213 2.7574 0.7202 0.1416 1.0661 0.1702 -0.3401 4.9739 3.2610 1.2334 -2.5884 2.1325 -0.2543 0.2557 7.8944 -1.0366 -5.0223 -33.5300 -2.8904 -0.0000 0.0000 10.5130 -17.3667 18.2842 -1.3168 -0.0000 0.0000 0.0000 -0.0000 -0.0000 0.0000 2.1737 -9.7664 4.1144 15.4191 22.5749 -17.8018 -0.0000 0.0000 -3.1940 -18.0642 -19.0624 3.3111 0.0000 0.0000 -0.0000 0.0000 0.0000 -0.0000 0.7575 -0.6084 -18.2605 5.2490 -0.0000 -0.0000 -5.7752 -4.6813 -4.4911 -2.0027 0.0000 -0.0000 1.1385 0.0821 18.6654 4.2839 0.0000 -0.0000 -9.0980 -1.2209 5.7439 3.3342 -0.0000 -0.0000
 -2.6759 -24.6149 36.3772 -0.4556 1.1463 92.7138 -1.3848 -0.9193 0.1160 -0.9664 -0.3777 -0.0212 2.7580 0.7188 0.1353 1.0661 0.1712 -0.3425 4.9698 3.2780 1.2286 -2.5930 2.1568 -0.2705 0.2595 7.9012 -1.0332 -5.0232 -33.5531 -2.8928 0.0000 0.0000 10.5068 -17.3600 18.2528 -1.3317 -0.0000 -0.0000 -0.0000 0.0000 0.0000 -0.0000 2.1752 -9.7711 4.1214 15.4164 22.5978 -17.8044 0.0000 -0.0000 -3.1819 -18.0527 -19.0532 3.3080 -0.0000 0.0000 -0.0000 0.0000 -0.0000 -0.0000 0.7206 -0.5997 -18.2987 5.2640 -0.0000 0.0000 -5.7679 -4.6878 -4.4611 -2.0049 0.0000 0.0000 1.0938 0.0795 18.7212 4.3137 0.0000 0.0000 -9.1030 -1.2195 5.6790 3.3327 -0.0000 -0.0000
 -2.6832 -24.6118 36.3773 -0.4573 1.1643 92.7213 -1.3842 -0.9224 0.1163 -0.9654 -0.3786 -0.0218 2.7582 0.7177 0.1301 1.0659 0.1722 -0.3450 4.9651 3.2952 1.2237 -2.5960 2.1820 -0.2882 0.2645 7.9083 -1.0304 -5.0208 -33.5753 -2.8935 -0.0000 0.0000 10.4988 -17.3548 18.2240 -1.3454 -0.0000 -0.0000 0.0000 0.0000 0.0000 -0.0000 2.1768 -9.7748 4.1279 15.4109 22.6189 -17.8074 -0.0000 -0.0000 -3.1666 -18.0384 -19.0404 3.3057 0.0000 0.0000 0.0000 -0.0000 0.0000 -0.0000 0.6828 -0.5907 -18.3431 5.2813 0.0000 -0.0000 -5.7609 -4.6949 -4.4242 -2.0087 -0.0000 0.0000 1.0501 0.0770 18.7774 4.3415 -0.0000 -0.0000 -9.1077 -1.2165 5.6146 3.3322 0.0000 0.0000
 -2.6903 -24.6087 36.3775 -0.4591 1.1829 92.7284 -1.3842 -0.9256 0.1169 -0.9647 -0.3800 -0.0224 2.7587 0.7168 0.1257 1.0656 0.1731 -0.3474 4.9597 3.3133 1.2188 -2.5969 2.2072 -0.3075 0.2706 7.9158 -1.0286 -5.0163 -33.5962 -2.8936 -0.0000 -0.0000 10.4898 -17.3496 18.1991 -1.3582 -0.0000 0.0000 -0.0000 -0.0000 -0.0000 -0.0000 2.1782 -9.7775 4.1340 15.4028 22.6383 -17.8112 -0.0000 -0.0000 -3.1486 -18.0204 -19.0245 3.3067 -0.0000 -0.0000 -0.0000 -0.0000 0.0000 0.0000 0.6435 -0.5813 -18.3927 5.3013 -0.0000 -0.0000 -5.7541 -4.7021 -4.3807 -2.0152 -0.0000 -0.0000 1.0072 0.0744 18.8347 4.3673 -0.0000 0.0000 -9.1120 -1.2122 5.5505 3.3318 0.0000 -0.0000
 -2.6973 -24.6057 36.3777 -0.4615 1.2022 92.7351 -1.3848 -0.9289 0.1175 -0.9646 -0.3820 -0.0230 2.7592 0.7158 0.1227 1.0653 0.1741 -0.3497 4.9543 3.3324 1.2136 -2.5964 2.2324 -0.3289 0.2779 7.9236 -1.0277 -5.0112 -33.6159 -2.8943 -0.0000 0.0000 10.4805 -17.3449 18.1774 -1.3709 -0.0000 0.0000 0.0000 -0.0000 0.0000 -0.0000 2.1802 -9.7791 4.1394 15.3917 22.6561 -17.8152 0.0000 0.0000 -3.1293 -18.0008 -19.0055 3.3123 -0.0000 0.0000 -0.0000 -0.0000 0.0000 0.0000 0.6027 -0.5718 -18.4466 5.3235 -0.0000 0.0000 -5.7473 -4.7090 -4.3318 -2.0233 0.0000 0.0000 0.9645 0.0714 18.8942 4.3916 0.0000 0.0000 -9.1163 -1.2067 5.4856 3.3327 -0.0000 0.0000
 -2.7042 -24.6027 36.3778 -0.4643 1.2230 92.7412 -1.3877 -0.9325 0.1182 -0.9639 -0.3846 -0.0235 2.7598 0.7146 0.1210 1.0648 0.1750 -0.3515 4.9490 3.3528 1.2082 -2.5947 2.2562 -0.3522 0.2861 7.9313 -1.0277 -5.0061 -33.6341 -2.8959 -0.0000 0.0000 10.4714 -17.3410 18.1590 -1.3828 -0.0000 0.0000 -0.0000 0.0000 -0.0000 0.0000 2.1821 -9.7797 4.1433 15.3786 22.6724 -17.8183 -0.0000 -0.0000 -3.1105 -17.9813 -18.9840 3.3240 -0.0000 0.0000 0.0000 -0.0000 0.0000 0.0000 0.5594 -0.5625 -18.5023 5.3475 -0.0000 0.0000 -5.7405 -4.7153 -4.2799 -2.0326 -0.0000 0.0000 0.9210 0.0680 18.9559 4.4145 -0.0000 0.0000 -9.1204 -1.2001 5.4195 3.3345 0.0000 -0.0000
